<?xml version="1.0" encoding="UTF-8"?>
<!DOCTYPE svg PUBLIC "-//W3C//DTD SVG 1.1//EN" "http://www.w3.org/Graphics/SVG/1.1/DTD/svg11.dtd">
<!-- Creator: CorelDRAW 2021 (64-Bit) -->
<svg xmlns="http://www.w3.org/2000/svg" xml:space="preserve" width="201px" height="162px" version="1.1" style="shape-rendering:geometricPrecision; text-rendering:geometricPrecision; image-rendering:optimizeQuality; fill-rule:evenodd; clip-rule:evenodd"
viewBox="0 0 34.979 28.294"
 xmlns:xlink="http://www.w3.org/1999/xlink"
 xmlns:xodm="http://www.corel.com/coreldraw/odm/2003">
 <defs>
  <style type="text/css">
   <![CDATA[
    .fil2 {fill:#373435}
    .fil0 {fill:#EE4037}
    .fil1 {fill:#FEFEFE;fill-rule:nonzero}
   ]]>
  </style>
 </defs>
 <g id="Capa_x0020_1">
  <metadata id="CorelCorpID_0Corel-Layer"/>
  <path class="fil0" d="M14.547 3.337c6.824,-1.044 13.263,3.629 14.323,10.469 1.06,6.856 -3.645,13.295 -10.485,14.339 -6.808,1.06 -13.247,-3.645 -14.307,-10.485 -1.06,-6.857 3.645,-13.279 10.469,-14.323z"/>
  <path class="fil1" d="M27.797 15.763l-0.422 0 0 0 -0.014 -0.562 -0.042 -0.554 -0.07 -0.545 -0.095 -0.537 -0.122 -0.528 -0.148 -0.517 -0.171 -0.506 -0.195 -0.496 -0.219 -0.483 -0.24 -0.47 -0.263 -0.457 -0.284 -0.442 -0.304 -0.428 -0.324 -0.412 -0.343 -0.396 -0.361 -0.378 -0.379 -0.362 -0.395 -0.343 -0.413 -0.323 -0.427 -0.304 -0.442 -0.285 -0.458 -0.262 -0.47 -0.241 -0.483 -0.218 -0.495 -0.195 -0.507 -0.172 -0.517 -0.147 -0.528 -0.122 -0.536 -0.095 -0.546 -0.07 -0.554 -0.042 -0.562 -0.015 0 -0.422 0.582 0.015 0.575 0.044 0.567 0.071 0.559 0.1 0.547 0.127 0.539 0.152 0.526 0.179 0.514 0.203 0.503 0.227 0.488 0.25 0.474 0.273 0.46 0.294 0.444 0.316 0.428 0.336 0.412 0.356 0.393 0.375 0.375 0.394 0.356 0.412 0.337 0.427 0.316 0.444 0.294 0.46 0.272 0.474 0.251 0.489 0.227 0.502 0.203 0.514 0.178 0.527 0.153 0.538 0.126 0.548 0.1 0.558 0.072 0.567 0.044 0.575 0.014 0.582zm-11.329 11.33l0 -0.422 0 0 0.562 -0.015 0.554 -0.042 0.546 -0.07 0.536 -0.095 0.528 -0.122 0.517 -0.147 0.507 -0.172 0.495 -0.195 0.483 -0.218 0.47 -0.241 0.458 -0.263 0.442 -0.284 0.427 -0.304 0.413 -0.324 0.395 -0.342 0.379 -0.362 0.361 -0.379 0.343 -0.395 0.324 -0.412 0.304 -0.428 0.284 -0.442 0.263 -0.457 0.24 -0.471 0.219 -0.482 0.195 -0.496 0.171 -0.507 0.148 -0.517 0.122 -0.527 0.095 -0.537 0.07 -0.546 0.042 -0.554 0.014 -0.562 0.422 0 -0.014 0.582 -0.044 0.576 -0.072 0.567 -0.1 0.558 -0.126 0.548 -0.153 0.538 -0.178 0.527 -0.203 0.513 -0.227 0.503 -0.251 0.488 -0.272 0.474 -0.294 0.461 -0.316 0.444 -0.337 0.427 -0.356 0.412 -0.375 0.393 -0.393 0.375 -0.412 0.356 -0.428 0.337 -0.444 0.316 -0.46 0.294 -0.474 0.273 -0.488 0.25 -0.503 0.227 -0.514 0.203 -0.526 0.179 -0.539 0.152 -0.547 0.126 -0.559 0.101 -0.567 0.071 -0.575 0.044 -0.582 0.015zm-11.329 -11.33l0.422 0 0 0 0.014 0.562 0.042 0.554 0.07 0.546 0.096 0.537 0.121 0.527 0.148 0.517 0.171 0.507 0.195 0.496 0.219 0.482 0.24 0.471 0.263 0.457 0.284 0.442 0.305 0.428 0.323 0.412 0.343 0.395 0.362 0.379 0.378 0.362 0.395 0.342 0.413 0.324 0.428 0.304 0.442 0.284 0.457 0.263 0.47 0.241 0.483 0.218 0.496 0.195 0.506 0.172 0.517 0.147 0.528 0.122 0.537 0.095 0.545 0.07 0.554 0.042 0.562 0.015 0 0.422 -0.582 -0.015 -0.575 -0.044 -0.567 -0.071 -0.559 -0.101 -0.547 -0.126 -0.539 -0.152 -0.526 -0.179 -0.514 -0.203 -0.502 -0.227 -0.489 -0.25 -0.474 -0.273 -0.46 -0.294 -0.444 -0.316 -0.428 -0.337 -0.411 -0.356 -0.394 -0.375 -0.375 -0.393 -0.356 -0.412 -0.337 -0.427 -0.315 -0.444 -0.295 -0.461 -0.272 -0.474 -0.251 -0.488 -0.227 -0.503 -0.203 -0.513 -0.178 -0.527 -0.152 -0.538 -0.127 -0.548 -0.1 -0.558 -0.072 -0.567 -0.043 -0.576 -0.015 -0.582zm11.329 -11.329l0 0.422 0 0 -0.562 0.015 -0.554 0.042 -0.545 0.07 -0.537 0.095 -0.528 0.122 -0.517 0.147 -0.506 0.172 -0.496 0.195 -0.483 0.218 -0.47 0.241 -0.457 0.262 -0.442 0.285 -0.428 0.304 -0.413 0.323 -0.395 0.343 -0.378 0.362 -0.362 0.378 -0.343 0.396 -0.323 0.412 -0.305 0.428 -0.284 0.442 -0.263 0.457 -0.24 0.47 -0.219 0.483 -0.195 0.496 -0.171 0.506 -0.148 0.517 -0.121 0.528 -0.096 0.537 -0.07 0.545 -0.042 0.554 -0.014 0.562 -0.422 0 0.015 -0.582 0.043 -0.575 0.072 -0.567 0.1 -0.558 0.127 -0.548 0.152 -0.538 0.178 -0.527 0.203 -0.514 0.227 -0.502 0.251 -0.489 0.272 -0.474 0.295 -0.46 0.315 -0.444 0.337 -0.427 0.356 -0.412 0.375 -0.394 0.394 -0.375 0.411 -0.356 0.428 -0.336 0.444 -0.316 0.46 -0.294 0.474 -0.273 0.489 -0.25 0.502 -0.227 0.514 -0.203 0.526 -0.179 0.539 -0.152 0.547 -0.127 0.559 -0.1 0.567 -0.071 0.575 -0.044 0.582 -0.015z"/>
  <polygon class="fil2" points="0,25.232 33.118,4.198 33.75,5.287 0.116,25.381 "/>
  <polygon class="fil2" points="4.636,25.799 34.19,0 34.979,0.981 4.773,25.928 "/>
 </g>
</svg>
