<?xml version="1.0" encoding="UTF-8"?>
<!DOCTYPE svg PUBLIC "-//W3C//DTD SVG 1.1//EN" "http://www.w3.org/Graphics/SVG/1.1/DTD/svg11.dtd">
<!-- Creator: CorelDRAW 2021 (64-Bit) -->
<svg xmlns="http://www.w3.org/2000/svg" xml:space="preserve" width="514px" height="100px" version="1.1" style="shape-rendering:geometricPrecision; text-rendering:geometricPrecision; image-rendering:optimizeQuality; fill-rule:evenodd; clip-rule:evenodd"
viewBox="0 0 372.11 72.354"
 xmlns:xlink="http://www.w3.org/1999/xlink"
 xmlns:xodm="http://www.corel.com/coreldraw/odm/2003">
 <defs>
  <style type="text/css">
   <![CDATA[
    .fil2 {fill:#373435}
    .fil0 {fill:#EE4037}
    .fil1 {fill:#FEFEFE;fill-rule:nonzero}
   ]]>
  </style>
 </defs>
 <g id="Capa_x0020_1">
  <metadata id="CorelCorpID_0Corel-Layer"/>
  <path class="fil0" d="M37.2 8.533c17.451,-2.669 33.916,9.28 36.627,26.772 2.71,17.533 -9.321,33.999 -26.813,36.667 -17.41,2.711 -33.876,-9.32 -36.586,-26.812 -2.71,-17.534 9.321,-33.958 26.772,-36.627z"/>
  <path class="fil1" d="M71.084 40.31l-1.079 0 0 0 -0.037 -1.437 -0.108 -1.416 -0.179 -1.396 -0.244 -1.372 -0.311 -1.35 -0.377 -1.322 -0.438 -1.295 -0.499 -1.268 -0.559 -1.234 -0.615 -1.203 -0.672 -1.169 -0.727 -1.13 -0.778 -1.094 -0.827 -1.055 -0.877 -1.01 -0.924 -0.969 -0.969 -0.924 -1.01 -0.877 -1.055 -0.827 -1.094 -0.778 -1.13 -0.727 -1.17 -0.672 -1.202 -0.615 -1.234 -0.559 -1.268 -0.499 -1.296 -0.438 -1.321 -0.377 -1.351 -0.311 -1.372 -0.244 -1.395 -0.179 -1.416 -0.108 -1.438 -0.037 0 -1.079 1.489 0.038 1.471 0.112 1.45 0.182 1.427 0.257 1.401 0.324 1.377 0.389 1.346 0.456 1.314 0.519 1.285 0.581 1.249 0.64 1.212 0.698 1.177 0.752 1.136 0.807 1.093 0.861 1.053 0.911 1.006 0.958 0.959 1.007 0.91 1.053 0.862 1.093 0.807 1.135 0.752 1.177 0.698 1.212 0.641 1.249 0.579 1.285 0.52 1.314 0.456 1.347 0.389 1.376 0.324 1.401 0.256 1.428 0.183 1.45 0.112 1.471 0.038 1.488zm-28.972 28.971l0 -1.078 0 0 1.438 -0.038 1.416 -0.107 1.395 -0.179 1.372 -0.244 1.351 -0.311 1.321 -0.377 1.296 -0.438 1.268 -0.499 1.234 -0.559 1.202 -0.615 1.17 -0.672 1.13 -0.727 1.094 -0.778 1.055 -0.827 1.01 -0.877 0.969 -0.925 0.924 -0.968 0.877 -1.01 0.827 -1.056 0.778 -1.093 0.727 -1.13 0.672 -1.17 0.615 -1.202 0.559 -1.234 0.499 -1.268 0.438 -1.296 0.377 -1.321 0.311 -1.351 0.244 -1.372 0.179 -1.395 0.108 -1.416 0.037 -1.438 1.079 0 -0.038 1.489 -0.112 1.471 -0.183 1.45 -0.256 1.427 -0.324 1.401 -0.389 1.377 -0.456 1.346 -0.52 1.314 -0.579 1.285 -0.641 1.249 -0.698 1.212 -0.752 1.177 -0.807 1.136 -0.862 1.093 -0.91 1.053 -0.959 1.006 -1.006 0.959 -1.053 0.91 -1.093 0.861 -1.136 0.808 -1.177 0.752 -1.212 0.698 -1.249 0.64 -1.285 0.58 -1.314 0.52 -1.346 0.456 -1.377 0.389 -1.401 0.324 -1.427 0.256 -1.45 0.183 -1.471 0.112 -1.489 0.037zm-28.97 -28.971l1.078 0 0 0 0.038 1.438 0.107 1.416 0.179 1.395 0.244 1.372 0.311 1.351 0.377 1.321 0.438 1.296 0.499 1.268 0.559 1.234 0.615 1.202 0.672 1.17 0.727 1.13 0.778 1.093 0.827 1.056 0.877 1.01 0.924 0.968 0.969 0.925 1.01 0.877 1.055 0.827 1.094 0.778 1.13 0.727 1.17 0.672 1.202 0.615 1.234 0.559 1.268 0.499 1.296 0.438 1.321 0.377 1.35 0.311 1.373 0.244 1.395 0.179 1.416 0.107 1.437 0.038 0 1.078 -1.488 -0.037 -1.471 -0.112 -1.45 -0.183 -1.428 -0.256 -1.4 -0.324 -1.377 -0.389 -1.346 -0.456 -1.315 -0.52 -1.284 -0.58 -1.25 -0.64 -1.211 -0.698 -1.177 -0.752 -1.136 -0.808 -1.093 -0.861 -1.053 -0.91 -1.007 -0.959 -0.958 -1.006 -0.91 -1.053 -0.862 -1.093 -0.807 -1.136 -0.752 -1.177 -0.698 -1.212 -0.64 -1.249 -0.581 -1.285 -0.519 -1.314 -0.456 -1.346 -0.389 -1.377 -0.324 -1.401 -0.257 -1.427 -0.183 -1.45 -0.111 -1.471 -0.037 -1.489zm28.97 -28.971l0 1.079 0 0 -1.437 0.037 -1.416 0.108 -1.395 0.179 -1.373 0.244 -1.35 0.311 -1.321 0.377 -1.296 0.438 -1.268 0.499 -1.234 0.559 -1.202 0.615 -1.17 0.672 -1.13 0.727 -1.094 0.778 -1.055 0.827 -1.01 0.877 -0.969 0.924 -0.924 0.969 -0.877 1.01 -0.827 1.055 -0.778 1.094 -0.727 1.13 -0.672 1.169 -0.615 1.203 -0.559 1.234 -0.499 1.268 -0.438 1.295 -0.377 1.322 -0.311 1.35 -0.244 1.372 -0.179 1.396 -0.107 1.416 -0.038 1.437 -1.078 0 0.037 -1.488 0.111 -1.471 0.183 -1.45 0.257 -1.428 0.324 -1.401 0.389 -1.376 0.456 -1.347 0.519 -1.314 0.581 -1.285 0.64 -1.249 0.698 -1.212 0.752 -1.177 0.807 -1.135 0.862 -1.093 0.91 -1.053 0.958 -1.007 1.007 -0.958 1.053 -0.911 1.093 -0.861 1.136 -0.807 1.177 -0.752 1.211 -0.698 1.25 -0.64 1.284 -0.581 1.315 -0.519 1.346 -0.456 1.377 -0.389 1.4 -0.324 1.428 -0.257 1.45 -0.182 1.471 -0.112 1.488 -0.038z"/>
  <polygon class="fil2" points="0,64.525 84.689,10.735 86.306,13.52 0.297,64.904 "/>
  <polygon class="fil2" points="11.854,65.973 87.431,0 89.45,2.509 12.205,66.303 "/>
  <g id="_2478542456160">
   <path class="fil2" d="M124.694 29.237c0,0 -7.978,-0.315 -12.183,1.651 -4.284,2.043 -9.314,5.62 -9.039,9.078 0.315,3.498 5.344,4.598 9.903,3.498 7.781,-1.887 17.842,-7.153 20.003,-14.227 2.673,-8.489 -6.995,-12.851 -18.588,-10.021 -9.51,2.279 -18.314,10.335 -19.492,18.981 -1.493,11.043 2.318,19.178 14.383,21.89 15.17,3.419 25.231,-7.624 25.231,-7.663 0,0.039 -1.769,-0.747 -1.769,-0.786 0,0.039 -6.996,4.991 -15.563,4.873 -4.441,-0.079 -12.34,-1.454 -16.545,-6.406 -4.834,-5.698 -5.62,-12.615 0.197,-19.885 5.737,-7.074 18.352,-9.864 24.444,-7.192 6.17,2.712 3.93,8.41 0.786,11.004 -4.519,3.772 -7.624,4.715 -13.284,4.991 -3.89,0.196 -3.772,-2.555 -1.415,-3.852 2.87,-1.572 10.022,-2.044 10.022,-2.044l2.909 -3.89z"/>
   <path class="fil2" d="M283.24 29.237c0,0 -7.977,-0.315 -12.183,1.651 -4.282,2.043 -9.314,5.62 -9.038,9.078 0.314,3.498 5.344,4.598 9.903,3.498 7.781,-1.887 17.842,-7.153 20.003,-14.227 2.673,-8.489 -6.995,-12.851 -18.588,-10.021 -9.51,2.279 -18.313,10.335 -19.493,18.981 -1.493,11.043 2.319,19.178 14.384,21.89 15.17,3.419 25.23,-7.624 25.23,-7.663 0,0.039 -1.769,-0.747 -1.769,-0.786 0,0.039 -6.995,4.991 -15.562,4.873 -4.441,-0.079 -12.34,-1.454 -16.545,-6.406 -4.833,-5.698 -5.62,-12.615 0.197,-19.885 5.737,-7.074 18.352,-9.864 24.444,-7.192 6.17,2.712 3.93,8.41 0.786,11.004 -4.52,3.772 -7.624,4.715 -13.284,4.991 -3.89,0.196 -3.772,-2.555 -1.414,-3.852 2.869,-1.572 10.021,-2.044 10.021,-2.044l2.908 -3.89z"/>
   <path class="fil2" d="M158.083 54.904c0,0 -2.043,-1.296 -2.475,-2.829 -1.179,-4.127 1.414,-12.734 1.454,-12.734 -0.04,0 -0.471,-1.099 -1.179,-0.667 -0.747,0.472 -1.965,1.454 -1.926,1.454 -0.039,0 -1.257,0.197 -1.375,0.157 -0.157,-0.079 -4.245,-1.1 -7.035,0 -3.498,1.375 -6.13,4.127 -6.956,5.934 -1.375,2.987 -2.436,6.052 -0.393,9.354 0.786,1.375 7.821,1.178 9.393,-0.039 0.865,-0.63 2.987,-2.241 3.026,-2.241 -0.039,0 0.078,2.201 1.375,3.34 0.904,0.786 2.437,0.354 2.437,0.354l3.654 -2.083zm-6.562 -10.65c0,0 -1.808,-0.707 -3.459,-0.707 -1.65,0 -4.323,0.589 -6.052,3.025 -1.493,2.123 -1.218,4.481 0,5.463 1.729,1.377 4.991,0.158 5.895,-0.235 0.904,-0.393 2.122,-1.139 2.122,-1.139l1.494 -6.407z"/>
   <path class="fil2" d="M162.626 40.822c0,0 -0.275,7.545 -0.432,8.488 -0.196,0.982 -0.825,6.288 -0.982,6.917 -0.236,0.707 0.746,1.336 1.139,0.904 0.275,-0.354 2.712,-3.262 3.144,-4.087 0.433,-0.747 4.205,-6.681 4.991,-7.586 0.787,-0.825 3.34,-3.457 3.419,-1.453 0.079,2.082 -0.431,8.842 -0.51,9.706 -0.079,0.944 0.628,2.123 1.021,2.398 0.393,0.353 2.084,1.061 2.084,1.022 0,0.039 4.794,-2.751 4.794,-2.791 0,0.04 -1.14,-0.432 -1.69,-0.825 -0.551,-0.314 -0.944,-1.061 -0.944,-1.573 0,-0.51 -0.078,-10.649 0,-9.352 0,0 -0.55,-3.183 -2.043,-3.616 -1.493,-0.432 -3.773,0.826 -4.716,2.043 -0.943,1.258 -3.654,4.205 -3.89,4.441 -0.236,0.237 -0.472,0.119 -0.433,-0.353 0.04,-0.393 0.826,-5.698 0.629,-6.091 -0.196,-0.393 -5.581,1.808 -5.581,1.808z"/>
   <path class="fil2" d="M221.002 40.822c0,0 -0.274,7.545 -0.431,8.488 -0.197,0.982 -0.826,6.288 -0.983,6.917 -0.236,0.707 0.747,1.336 1.14,0.904 0.274,-0.354 2.711,-3.262 3.144,-4.087 0.432,-0.747 4.204,-6.681 4.99,-7.586 0.786,-0.825 3.341,-3.457 3.419,-1.453 0.079,2.082 -0.431,8.842 -0.51,9.706 -0.079,0.944 0.629,2.123 1.022,2.398 0.393,0.353 2.083,1.061 2.083,1.022 0,0.039 4.794,-2.751 4.794,-2.791 0,0.04 -1.14,-0.432 -1.69,-0.825 -0.551,-0.314 -0.944,-1.061 -0.944,-1.573 0,-0.51 -0.078,-10.649 0,-9.352 0,0 -0.55,-3.183 -2.043,-3.616 -1.493,-0.432 -3.773,0.826 -4.716,2.043 -0.943,1.258 -3.654,4.205 -3.891,4.441 -0.235,0.237 -0.471,0.119 -0.431,-0.353 0.039,-0.393 0.825,-5.698 0.628,-6.091 -0.197,-0.393 -5.581,1.808 -5.581,1.808z"/>
   <path class="fil2" d="M331.85 40.822c0,0 -0.276,7.545 -0.434,8.488 -0.195,0.982 -0.824,6.288 -0.982,6.917 -0.235,0.707 0.747,1.336 1.14,0.904 0.276,-0.354 2.711,-3.262 3.144,-4.087 0.432,-0.747 4.205,-6.681 4.991,-7.586 0.786,-0.825 3.341,-3.457 3.419,-1.453 0.079,2.082 -0.432,8.842 -0.511,9.706 -0.079,0.944 0.629,2.123 1.022,2.398 0.393,0.353 2.083,1.061 2.083,1.022 0,0.039 4.794,-2.751 4.794,-2.791 0,0.04 -1.139,-0.432 -1.69,-0.825 -0.55,-0.314 -0.943,-1.061 -0.943,-1.573 0,-0.51 -0.078,-10.649 0,-9.352 0,0 -0.55,-3.183 -2.044,-3.616 -1.493,-0.432 -3.772,0.826 -4.715,2.043 -0.943,1.258 -3.655,4.205 -3.891,4.441 -0.235,0.237 -0.471,0.119 -0.432,-0.353 0.039,-0.393 0.825,-5.698 0.629,-6.091 -0.197,-0.393 -5.58,1.808 -5.58,1.808z"/>
   <path class="fil2" d="M301.179 26.87c0,0 -3.34,21.733 -3.379,22.44 -0.04,0.708 -0.826,6.288 -0.983,6.917 -0.236,0.707 0.747,1.336 1.14,0.904 0.275,-0.354 2.711,-3.262 3.143,-4.087 0.433,-0.747 4.205,-6.681 4.991,-7.586 0.786,-0.825 3.341,-3.457 3.419,-1.453 0.079,2.082 -0.432,8.842 -0.51,9.706 -0.079,0.944 0.628,2.123 1.022,2.398 0.392,0.353 2.082,1.061 2.082,1.022 0,0.039 4.795,-2.751 4.795,-2.791 0,0.04 -1.14,-0.432 -1.69,-0.825 -0.55,-0.314 -0.944,-1.061 -0.944,-1.573 0,-0.51 -0.078,-10.649 0,-9.352 0,0 -0.549,-3.183 -2.042,-3.616 -1.494,-0.432 -3.774,0.826 -4.717,2.043 -0.943,1.258 -3.655,4.205 -3.89,4.441 -0.237,0.237 -0.433,-0.078 -0.433,-0.353 0,-0.275 2.987,-20.081 2.791,-20.475 -0.197,-0.393 -4.795,2.24 -4.795,2.24z"/>
   <path class="fil2" d="M189.054 33.09c0,0 -0.079,4.637 -0.158,5.07 -0.078,0.431 -0.431,0.707 -0.903,0.707 -0.707,0 -2.555,0.708 -3.105,1.218 -0.55,0.511 -1.454,2.044 -0.864,2.279 0.589,0.237 2.671,0.747 2.671,1.336 0,0.59 -0.982,7.507 -0.903,8.922 0.079,1.414 1.1,2.829 2.201,3.379 1.061,0.551 3.576,1.179 3.576,1.14 0,0.039 2.791,-2.908 2.712,-3.301 -0.04,-0.393 -1.768,-0.355 -2.909,-0.433 -1.1,-0.039 -1.375,-1.178 -1.375,-2.121 0,-0.944 0.589,-6.878 0.589,-7.153 0,-0.275 0.354,-0.708 0.747,-0.668 0.353,0.038 2.359,-0.157 2.359,-0.197 0,0.04 2.986,-5.03 2.986,-5.069 0,0.039 -3.262,0.354 -3.734,0.549 -0.472,0.197 -0.707,-0.274 -0.628,-0.588 0.078,-0.315 0.825,-3.302 0.983,-4.206 0.117,-0.786 0.235,-2.358 0,-2.908l-4.245 2.044z"/>
   <path class="fil2" d="M204.649 43.774l3.497 -5.384c0,0 1.925,-0.667 5.069,1.808 2.398,1.886 3.184,8.017 1.376,11.122 -1.808,3.104 -7.113,6.641 -11.712,5.384 -4.715,-1.179 -6.955,-4.873 -6.68,-8.646 0.275,-3.773 2.751,-6.17 4.637,-7.191 1.886,-1.022 4.716,-0.983 4.716,-0.983l-3.419 5.266c-0.707,1.139 -1.1,3.734 -0.511,4.873 0.59,1.14 1.769,3.851 4.873,3.616 3.105,-0.237 4.677,-2.869 5.031,-4.206 0.353,-1.335 0.786,-4.755 -1.612,-5.502 -2.397,-0.707 -5.265,-0.157 -5.265,-0.157zm4.794 -13.047l5.58 2.161c0,0 -3.93,2.319 -6.445,3.144 -2.515,0.826 -7.035,1.691 -6.995,1.65 -0.04,0.041 -0.747,-0.471 -0.393,-0.707 0.275,-0.156 4.048,-2.711 4.558,-3.222 0.512,-0.511 3.695,-3.026 3.695,-3.026z"/>
   <path class="fil2" d="M361.176 43.866l3.498 -5.384c0,0 1.925,-0.668 5.07,1.809 2.396,1.885 3.182,8.016 1.375,11.121 -1.808,3.104 -7.113,6.641 -11.711,5.384 -4.716,-1.18 -6.956,-4.873 -6.681,-8.646 0.275,-3.773 2.751,-6.171 4.637,-7.192 1.887,-1.022 4.716,-0.982 4.716,-0.982l-3.419 5.265c-0.708,1.14 -1.101,3.734 -0.511,4.874 0.59,1.139 1.768,3.851 4.873,3.615 3.105,-0.236 4.677,-2.869 5.031,-4.205 0.353,-1.336 0.786,-4.755 -1.612,-5.501 -2.397,-0.708 -5.266,-0.158 -5.266,-0.158z"/>
   <path class="fil2" d="M327.306 39.232c0.079,-0.354 0,-0.472 -0.117,-0.472 -0.197,0 -4.717,1.179 -4.952,1.493 -0.236,0.315 -2.201,8.607 -1.258,13.401 0.236,1.218 3.223,3.576 3.537,3.498 0.314,-0.079 3.066,-2.476 2.83,-3.026 -0.393,-0.904 -2.241,-1.101 -2.241,-2.594 0,-4.401 1.14,-8.056 2.201,-12.3zm-1.886 -7.625c1.258,0 2.279,1.14 2.279,2.595 0,1.453 -1.021,2.593 -2.279,2.593 -1.258,0 -2.319,-1.14 -2.319,-2.593 0,-1.455 1.061,-2.595 2.319,-2.595z"/>
  </g>
 </g>
</svg>
